<svg width="54" height="54" viewBox="0 0 54 54" fill="none" xmlns="http://www.w3.org/2000/svg">
<g id="customer-support-svgrepo-com" clip-path="url(#clip0_156_381)">
<g id="surface1">
<path id="Vector" d="M27.028 5.25049V20.693C24.418 21.563 22.678 23.9555 22.678 26.783C22.678 27.8705 22.8955 28.958 23.548 29.828L19.198 33.308C18.9805 33.308 18.763 33.0905 18.328 33.0905C17.023 33.0905 16.153 33.9605 16.153 35.2655C16.153 36.5705 17.023 37.4405 18.328 37.4405C19.633 37.4405 20.503 36.5705 20.503 35.2655V35.048L24.853 31.568C25.9405 32.6555 27.463 33.308 29.203 33.308C32.9005 33.308 35.728 30.4805 35.728 26.783C35.728 23.9555 33.988 21.563 31.378 20.693V5.46799H31.5955C39.208 6.33799 45.5155 12.6455 46.3855 20.4755C47.038 25.2605 45.733 29.6105 43.123 33.0905C41.1655 35.7005 40.078 38.528 40.078 41.7905V48.7505H20.503V42.2255H16.153C13.7605 42.2255 11.803 40.268 11.803 37.8755V31.3505L8.54049 30.0455C7.67049 29.6105 7.23549 28.3055 7.67049 27.4355L11.803 20.9105C12.673 12.863 18.9805 6.33799 27.028 5.25049ZM29.203 23.738C30.943 23.738 32.4655 25.2605 32.4655 27.0005C32.4655 28.7405 30.943 30.263 29.203 30.263C27.463 30.263 25.9405 28.7405 25.9405 27.0005C25.9405 25.2605 27.463 23.738 29.203 23.738Z" fill="url(#paint0_linear_156_381)"/>
</g>
</g>
<defs>
<linearGradient id="paint0_linear_156_381" x1="46.5518" y1="27.0005" x2="8.4477" y2="33.0103" gradientUnits="userSpaceOnUse">
<stop stop-color="#E31E24"/>
<stop offset="1" stop-color="#262065"/>
</linearGradient>
<clipPath id="clip0_156_381">
<rect width="52.2" height="52.2" fill="white" transform="matrix(-1 0 0 1 53.1279 0.900879)"/>
</clipPath>
</defs>
</svg>
