<svg width="54" height="53" viewBox="0 0 54 53" fill="none" xmlns="http://www.w3.org/2000/svg">
<g id="lightbulb-flash-fill-svgrepo-com" clip-path="url(#clip0_156_349)">
<g id="Group">
<path id="Vector" d="M18.1502 39.8003C17.5043 37.0315 14.5898 34.7673 13.3935 33.2753C11.3451 30.7159 10.0613 27.63 9.69007 24.3729C9.31883 21.1159 9.87524 17.8202 11.2952 14.8655C12.7152 11.9108 14.9409 9.41741 17.716 7.67243C20.4911 5.92745 23.7028 5.00192 26.9809 5.00244C30.2591 5.00297 33.4704 5.92953 36.245 7.6754C39.0195 9.42127 41.2445 11.9154 42.6635 14.8705C44.0825 17.8256 44.6378 21.1215 44.2656 24.3785C43.8933 27.6354 42.6085 30.7209 40.5593 33.2796C39.363 34.7695 36.4529 37.0337 35.8069 39.8003H18.1502ZM35.6786 44.1503V46.3253C35.6786 47.479 35.2203 48.5854 34.4045 49.4012C33.5887 50.217 32.4823 50.6753 31.3286 50.6753H22.6286C21.4749 50.6753 20.3684 50.217 19.5527 49.4012C18.7369 48.5854 18.2786 47.479 18.2786 46.3253V44.1503H35.6786ZM29.1536 22.4111V13.7003L19.3661 26.7611H24.8036V35.4611L34.5911 22.4111H29.1536Z" fill="url(#paint0_linear_156_349)"/>
</g>
</g>
<defs>
<linearGradient id="paint0_linear_156_349" x1="12.6253" y1="4.5692" x2="49.5429" y2="26.7811" gradientUnits="userSpaceOnUse">
<stop stop-color="#E31E24"/>
<stop offset="1" stop-color="#262065"/>
</linearGradient>
<clipPath id="clip0_156_349">
<rect width="52.2" height="52.2" fill="white" transform="translate(0.876953 0.651367)"/>
</clipPath>
</defs>
</svg>
