<svg width="26" height="26" viewBox="0 0 26 26" fill="none" xmlns="http://www.w3.org/2000/svg">
<path d="M20.9073 4.8074C18.7955 2.6906 15.9832 1.52637 12.9945 1.52637C6.82555 1.52637 1.80572 6.54619 1.80572 12.7151C1.80572 14.6858 2.3198 16.611 3.29756 18.3095L1.70996 24.1055L7.64202 22.5482C9.27498 23.4402 11.1146 23.9089 12.9894 23.9089H12.9945C19.1584 23.9089 24.2891 18.8891 24.2891 12.7202C24.2891 9.73147 23.019 6.92419 20.9073 4.8074ZM12.9945 22.024C11.3212 22.024 9.68322 21.5754 8.2569 20.7287L7.91922 20.5271L4.40131 21.4494L5.33875 18.0172L5.11699 17.6644C4.18459 16.1826 3.69572 14.4741 3.69572 12.7151C3.69572 7.58947 7.86882 3.41636 12.9995 3.41636C15.4842 3.41636 17.8178 4.38404 19.5717 6.14299C21.3256 7.90195 22.4041 10.2355 22.3991 12.7202C22.3991 17.8509 18.1202 22.024 12.9945 22.024ZM18.095 15.0587C17.8178 14.9176 16.4418 14.2423 16.1848 14.1515C15.9278 14.0558 15.7413 14.0104 15.5548 14.2927C15.3683 14.5749 14.8341 15.1999 14.6678 15.3914C14.5065 15.5778 14.3402 15.603 14.063 15.4619C12.4199 14.6404 11.3414 13.9953 10.2578 12.1355C9.9705 11.6416 10.5451 11.6769 11.0793 10.6084C11.17 10.4219 11.1247 10.2607 11.0541 10.1195C10.9835 9.97842 10.4241 8.60251 10.1923 8.04307C9.96546 7.49875 9.73362 7.57435 9.56226 7.56427C9.40098 7.55419 9.2145 7.55419 9.02802 7.55419C8.84154 7.55419 8.53914 7.62475 8.2821 7.90195C8.02506 8.18419 7.30435 8.85955 7.30435 10.2355C7.30435 11.6114 8.3073 12.9419 8.44338 13.1284C8.5845 13.3149 10.414 16.1373 13.2213 17.3519C14.9954 18.118 15.6909 18.1835 16.5779 18.0525C17.1172 17.9718 18.231 17.3771 18.4629 16.7219C18.6947 16.0667 18.6947 15.5073 18.6242 15.3914C18.5586 15.2654 18.3722 15.1948 18.095 15.0587Z" fill="#13B28C"/>
</svg>
