<svg width="416" height="78" viewBox="0 0 416 78" fill="none" xmlns="http://www.w3.org/2000/svg">
  <path d="M0.34375 75.8406V0.59082H30.7572C31.4888 0.59082 32.3946 0.625658 33.4745 0.695333C34.5545 0.730172 35.5822 0.834686 36.5577 1.00888C40.7382 1.67079 44.222 3.09914 47.0091 5.29393C49.8309 7.48872 51.9386 10.2583 53.3321 13.6028C54.7256 16.9472 55.4224 20.64 55.4224 24.6812C55.4224 28.7572 54.7256 32.4675 53.3321 35.8119C51.9386 39.1563 49.8309 41.9259 47.0091 44.1207C44.222 46.3155 40.7382 47.7439 36.5577 48.4058C35.5822 48.5451 34.5371 48.6496 33.4223 48.7193C32.3423 48.789 31.454 48.8238 30.7572 48.8238H11.2654V75.8406H0.34375ZM11.2654 38.477H30.3391C31.0359 38.477 31.8023 38.4422 32.6384 38.3725C33.5094 38.3028 34.3281 38.1809 35.0945 38.0067C37.3241 37.4841 39.1183 36.5261 40.477 35.1326C41.8356 33.7042 42.8111 32.0668 43.4033 30.2204C43.9956 28.374 44.2917 26.5276 44.2917 24.6812C44.2917 22.8348 43.9956 21.0058 43.4033 19.1942C42.8111 17.3478 41.8356 15.7279 40.477 14.3344C39.1183 12.906 37.3241 11.9305 35.0945 11.408C34.3281 11.1989 33.5094 11.0596 32.6384 10.9899C31.8023 10.9202 31.0359 10.8854 30.3391 10.8854H11.2654V38.477Z" fill="url(#paint0_linear_344_472)"/>
  <path d="M61.6883 75.8406V19.4033H71.4081V33.0945L70.0494 31.3178C70.7462 29.5062 71.6519 27.8514 72.7668 26.3534C73.8816 24.8205 75.1706 23.5664 76.6338 22.5909C78.0621 21.5458 79.6472 20.7445 81.3891 20.1871C83.1658 19.5949 84.9774 19.2465 86.8238 19.142C88.6702 19.0026 90.447 19.0897 92.154 19.4033V29.6456C90.3076 29.1579 88.2522 29.0185 85.9877 29.2275C83.7581 29.4366 81.7027 30.1507 79.8214 31.3701C78.0447 32.5197 76.6338 33.9132 75.5886 35.5506C74.5783 37.188 73.8467 39.017 73.3938 41.0376C72.9409 43.0233 72.7145 45.131 72.7145 47.3606V75.8406H61.6883Z" fill="url(#paint1_linear_344_472)"/>
  <path d="M121.413 77.4083C115.769 77.4083 110.874 76.1367 106.729 73.5935C102.583 71.0504 99.378 67.5492 97.1135 63.0899C94.8839 58.5958 93.7691 53.4224 93.7691 47.5697C93.7691 41.6821 94.9187 36.5086 97.218 32.0494C99.5173 27.5553 102.74 24.0715 106.886 21.598C111.031 19.0897 115.874 17.8356 121.413 17.8356C127.057 17.8356 131.951 19.1071 136.097 21.6503C140.243 24.1935 143.448 27.6947 145.712 32.1539C147.977 36.6132 149.109 41.7517 149.109 47.5697C149.109 53.4573 147.959 58.6481 145.66 63.1422C143.396 67.6014 140.191 71.1026 136.045 73.6458C131.899 76.1541 127.022 77.4083 121.413 77.4083ZM121.413 67.1137C126.813 67.1137 130.837 65.3021 133.484 61.679C136.167 58.021 137.508 53.3179 137.508 47.5697C137.508 41.6821 136.149 36.979 133.432 33.4603C130.749 29.9069 126.743 28.1301 121.413 28.1301C117.755 28.1301 114.741 28.9663 112.372 30.6385C110.004 32.2758 108.244 34.5577 107.095 37.4841C105.945 40.3757 105.37 43.7375 105.37 47.5697C105.37 53.4921 106.729 58.23 109.446 61.7835C112.163 65.337 116.152 67.1137 121.413 67.1137Z" fill="url(#paint2_linear_344_472)"/>
  <path d="M178.83 77.4083C173.57 77.4083 169.023 76.1019 165.191 73.489C161.394 70.8762 158.45 67.3227 156.36 62.8286C154.304 58.2997 153.276 53.2134 153.276 47.5697C153.276 41.8911 154.322 36.8222 156.412 32.3629C158.502 27.8689 161.463 24.3328 165.296 21.7548C169.163 19.142 173.744 17.8356 179.039 17.8356C184.369 17.8356 188.846 19.142 192.469 21.7548C196.127 24.3328 198.879 27.8689 200.726 32.3629C202.607 36.857 203.548 41.9259 203.548 47.5697C203.548 53.2134 202.607 58.2823 200.726 62.7764C198.844 67.2705 196.075 70.8414 192.417 73.489C188.759 76.1019 184.23 77.4083 178.83 77.4083ZM180.345 67.5318C183.934 67.5318 186.86 66.6782 189.125 64.9712C191.389 63.2641 193.044 60.9126 194.089 57.9165C195.134 54.9205 195.657 51.4715 195.657 47.5697C195.657 43.6678 195.117 40.2189 194.037 37.2228C192.992 34.2268 191.354 31.8926 189.125 30.2204C186.93 28.5482 184.125 27.7121 180.711 27.7121C177.088 27.7121 174.11 28.6005 171.775 30.3772C169.441 32.1539 167.699 34.5403 166.55 37.5364C165.435 40.5324 164.878 43.8769 164.878 47.5697C164.878 51.2973 165.435 54.6766 166.55 57.7075C167.699 60.7035 169.406 63.0899 171.671 64.8667C173.97 66.6434 176.862 67.5318 180.345 67.5318ZM195.657 75.8406V35.2371H194.403V0.59082H205.376V75.8406H195.657Z" fill="url(#paint3_linear_344_472)"/>
  <path d="M237.086 77.356C233.184 77.356 229.909 76.729 227.261 75.4748C224.614 74.2206 222.454 72.5832 220.782 70.5626C219.144 68.5072 217.89 66.2776 217.019 63.8738C216.148 61.47 215.556 59.1184 215.242 56.8191C214.929 54.5198 214.772 52.4992 214.772 50.7573V19.4033H225.851V47.1516C225.851 49.3464 226.025 51.6109 226.373 53.945C226.756 56.2443 227.453 58.3868 228.463 60.3726C229.509 62.3583 230.954 63.9609 232.801 65.1802C234.682 66.3995 237.121 67.0092 240.117 67.0092C242.068 67.0092 243.914 66.6956 245.656 66.0686C247.398 65.4066 248.913 64.3615 250.202 62.9332C251.526 61.5048 252.554 59.6236 253.285 57.2894C254.052 54.9553 254.435 52.116 254.435 48.7716L261.228 51.3322C261.228 56.4533 260.27 60.9822 258.354 64.9189C256.438 68.8208 253.686 71.8691 250.098 74.0639C246.509 76.2586 242.172 77.356 237.086 77.356ZM255.741 75.8406V59.5365H254.435V19.4033H265.461V75.8406H255.741Z" fill="url(#paint4_linear_344_472)"/>
  <path d="M300.08 77.4083C294.297 77.4083 289.384 76.1193 285.343 73.5413C281.302 70.9633 278.202 67.4272 276.042 62.9332C273.916 58.4391 272.836 53.3353 272.802 47.6219C272.836 41.804 273.951 36.6654 276.146 32.2062C278.341 27.7121 281.476 24.1935 285.552 21.6503C289.628 19.1071 294.523 17.8356 300.236 17.8356C306.403 17.8356 311.663 19.3684 316.018 22.4342C320.408 25.4999 323.299 29.6978 324.693 35.028L313.823 38.1634C312.743 34.9932 310.966 32.5371 308.493 30.7952C306.054 29.0185 303.25 28.1301 300.08 28.1301C296.491 28.1301 293.548 28.9837 291.248 30.6907C288.949 32.3629 287.242 34.6622 286.127 37.5886C285.012 40.515 284.437 43.8594 284.403 47.6219C284.437 53.4398 285.761 58.143 288.374 61.7313C291.022 65.3196 294.924 67.1137 300.08 67.1137C303.598 67.1137 306.438 66.3124 308.598 64.7099C310.792 63.0725 312.465 60.7384 313.614 57.7075L324.693 60.3203C322.846 65.8247 319.798 70.0575 315.548 73.0187C311.297 75.9451 306.141 77.4083 300.08 77.4083Z" fill="url(#paint5_linear_344_472)"/>
  <path d="M363.452 75.8406C359.899 76.5373 356.415 76.8335 353.001 76.729C349.587 76.6244 346.539 75.9625 343.856 74.7432C341.174 73.5239 339.153 71.6078 337.794 68.9949C336.575 66.6608 335.913 64.2918 335.809 61.888C335.739 59.4494 335.704 56.6972 335.704 53.6315V3.72622H346.678V53.1089C346.678 55.3733 346.695 57.3417 346.73 59.0139C346.8 60.6861 347.166 62.0971 347.828 63.2467C349.082 65.4066 351.068 66.6434 353.785 66.9569C356.537 67.2356 359.76 67.1137 363.452 66.5911V75.8406ZM324.887 28.1824V19.4033H363.452V28.1824H324.887Z" fill="url(#paint6_linear_344_472)"/>
  <path d="M392.753 77.356C385.89 77.356 380.298 75.8406 375.979 72.8097C371.659 69.7788 369.011 65.5112 368.036 60.0068L379.219 58.2823C379.915 61.2087 381.518 63.5254 384.026 65.2325C386.569 66.9047 389.722 67.7408 393.485 67.7408C396.899 67.7408 399.564 67.044 401.48 65.6505C403.431 64.257 404.406 62.3409 404.406 59.9023C404.406 58.4739 404.058 57.3243 403.361 56.4533C402.699 55.5475 401.288 54.694 399.128 53.8927C396.968 53.0915 393.676 52.0986 389.252 50.9141C384.409 49.6599 380.56 48.3187 377.703 46.8903C374.881 45.4271 372.861 43.7375 371.641 41.8214C370.457 39.8705 369.865 37.5189 369.865 34.7668C369.865 31.3526 370.77 28.374 372.582 25.8308C374.393 23.2877 376.937 21.3193 380.211 19.9258C383.521 18.5323 387.388 17.8356 391.812 17.8356C396.132 17.8356 399.982 18.5149 403.361 19.8736C406.74 21.2322 409.475 23.1657 411.565 25.6741C413.656 28.1476 414.91 31.0565 415.328 34.401L404.145 36.439C403.762 33.7216 402.49 31.5791 400.33 30.0114C398.17 28.4437 395.366 27.5902 391.917 27.4508C388.607 27.3115 385.925 27.8689 383.869 29.123C381.814 30.3423 380.786 32.032 380.786 34.1919C380.786 35.4461 381.169 36.5086 381.936 37.3796C382.737 38.2505 384.27 39.0866 386.534 39.8879C388.799 40.6892 392.143 41.6472 396.568 42.762C401.306 43.9814 405.068 45.34 407.855 46.8381C410.642 48.3013 412.628 50.0606 413.812 52.116C415.032 54.1366 415.641 56.5927 415.641 59.4842C415.641 65.0583 413.603 69.4304 409.527 72.6007C405.486 75.7709 399.895 77.356 392.753 77.356Z" fill="url(#paint7_linear_344_472)"/>
  <defs>
    <linearGradient id="paint0_linear_344_472" x1="0.343747" y1="38.9996" x2="271.108" y2="405.239" gradientUnits="userSpaceOnUse">
      <stop stop-color="#E31E24"/>
      <stop offset="1" stop-color="#262065"/>
    </linearGradient>
    <linearGradient id="paint1_linear_344_472" x1="0.343747" y1="38.9996" x2="271.108" y2="405.239" gradientUnits="userSpaceOnUse">
      <stop stop-color="#E31E24"/>
      <stop offset="1" stop-color="#262065"/>
    </linearGradient>
    <linearGradient id="paint2_linear_344_472" x1="0.343747" y1="38.9996" x2="271.108" y2="405.239" gradientUnits="userSpaceOnUse">
      <stop stop-color="#E31E24"/>
      <stop offset="1" stop-color="#262065"/>
    </linearGradient>
    <linearGradient id="paint3_linear_344_472" x1="0.343747" y1="38.9996" x2="271.108" y2="405.239" gradientUnits="userSpaceOnUse">
      <stop stop-color="#E31E24"/>
      <stop offset="1" stop-color="#262065"/>
    </linearGradient>
    <linearGradient id="paint4_linear_344_472" x1="0.343747" y1="38.9996" x2="271.108" y2="405.239" gradientUnits="userSpaceOnUse">
      <stop stop-color="#E31E24"/>
      <stop offset="1" stop-color="#262065"/>
    </linearGradient>
    <linearGradient id="paint5_linear_344_472" x1="0.343747" y1="38.9996" x2="271.108" y2="405.239" gradientUnits="userSpaceOnUse">
      <stop stop-color="#E31E24"/>
      <stop offset="1" stop-color="#262065"/>
    </linearGradient>
    <linearGradient id="paint6_linear_344_472" x1="0.343747" y1="38.9996" x2="271.108" y2="405.239" gradientUnits="userSpaceOnUse">
      <stop stop-color="#E31E24"/>
      <stop offset="1" stop-color="#262065"/>
    </linearGradient>
    <linearGradient id="paint7_linear_344_472" x1="0.343747" y1="38.9996" x2="271.108" y2="405.239" gradientUnits="userSpaceOnUse">
      <stop stop-color="#E31E24"/>
      <stop offset="1" stop-color="#262065"/>
    </linearGradient>
  </defs>
</svg>