<svg width="53" height="53" viewBox="0 0 53 53" fill="none" xmlns="http://www.w3.org/2000/svg">
<path d="M43.6675 28.2112C43.6675 25.4358 42.4206 22.8736 40.3112 20.7991C39.9155 20.413 39.6198 19.9363 39.4499 19.4102C39.28 18.8841 39.2408 18.3246 39.3359 17.78C39.4547 17.0981 39.5144 16.4073 39.5143 15.7152C39.5143 8.81304 33.6626 3.21777 26.4373 3.21777C19.2119 3.21777 13.3603 8.81304 13.3603 15.7152C13.3602 16.4073 13.4198 17.0981 13.5386 17.78C13.6337 18.3246 13.5946 18.8841 13.4246 19.4102C13.2547 19.9363 12.9591 20.413 12.5634 20.7991C10.454 22.8736 9.20703 25.4358 9.20703 28.2112C9.20703 34.1402 14.8994 39.1044 22.5364 40.3853C24.007 40.6319 25.1806 41.8429 25.1806 43.3341C25.1806 44.8819 23.9258 46.1366 22.378 46.1366H16.3181C15.6256 46.1366 15.0642 46.698 15.0642 47.3906C15.0642 48.0831 15.6256 48.6445 16.3181 48.6445H36.112C36.8045 48.6445 37.3659 48.0831 37.3659 47.3906C37.3659 46.698 36.8045 46.1366 36.112 46.1366H30.4966C28.9487 46.1366 27.694 44.8819 27.694 43.3341C27.694 41.8429 28.8676 40.6319 30.3382 40.3853C37.9752 39.1044 43.6675 34.1402 43.6675 28.2112ZM26.2753 38.5456C25.0726 38.5456 24.1495 37.4791 24.3219 36.2888L24.9578 31.8978C25.0893 30.9904 24.5404 30.1225 23.6642 29.8523L22.5025 29.494C21.6949 29.245 21.44 28.2278 22.0348 27.6274C22.3182 27.3413 22.733 27.2285 23.1224 27.3318L25.1985 27.8825C26.0103 28.0979 26.8643 28.0981 27.6762 27.8831L29.7739 27.3276C30.1541 27.2269 30.5591 27.3372 30.8358 27.6167C31.4257 28.2127 31.1571 29.2233 30.3491 29.4478L28.9192 29.845C27.945 30.1156 27.334 31.0799 27.5053 32.0763L28.2206 36.2373C28.428 37.4434 27.4991 38.5456 26.2753 38.5456Z" fill="url(#paint0_linear_340_592)"/>
<defs>
<linearGradient id="paint0_linear_340_592" x1="9.20703" y1="25.9311" x2="43.0661" y2="30.4436" gradientUnits="userSpaceOnUse">
<stop stop-color="#E31E24"/>
<stop offset="1" stop-color="#262065"/>
</linearGradient>
</defs>
</svg>
