<svg width="53" height="53" viewBox="0 0 53 53" fill="none" xmlns="http://www.w3.org/2000/svg">
<g id="lightbulb-flash-fill-svgrepo-com" clip-path="url(#clip0_340_567)">
<g id="Group">
<path id="Vector" d="M17.6737 39.6494C17.0277 36.8806 14.1132 34.6164 12.917 33.1244C10.8685 30.5651 9.58474 27.4791 9.21351 24.222C8.84227 20.965 9.39868 17.6693 10.8186 14.7146C12.2386 11.76 14.4643 9.26653 17.2395 7.52155C20.0146 5.77657 23.2262 4.85104 26.5044 4.85156C29.7825 4.85209 32.9938 5.77865 35.7684 7.52452C38.543 9.27039 40.7679 11.7645 42.1869 14.7197C43.6059 17.6748 44.1613 20.9706 43.789 24.2276C43.4167 27.4845 42.132 30.5701 40.0827 33.1287C38.8865 34.6186 35.9763 36.8828 35.3303 39.6494H17.6737ZM35.202 43.9994V46.1744C35.202 47.3281 34.7437 48.4345 33.9279 49.2503C33.1121 50.0661 32.0057 50.5244 30.852 50.5244H22.152C20.9983 50.5244 19.8919 50.0661 19.0761 49.2503C18.2603 48.4345 17.802 47.3281 17.802 46.1744V43.9994H35.202ZM28.677 22.2603V13.5494L18.8895 26.6103H24.327V35.3103L34.1145 22.2603H28.677Z" fill="url(#paint0_linear_340_567)"/>
</g>
</g>
<defs>
<linearGradient id="paint0_linear_340_567" x1="12.1487" y1="4.41832" x2="49.0663" y2="26.6302" gradientUnits="userSpaceOnUse">
<stop stop-color="#E31E24"/>
<stop offset="1" stop-color="#262065"/>
</linearGradient>
<clipPath id="clip0_340_567">
<rect width="52.2" height="52.2" fill="white" transform="translate(0.400391 0.500977)"/>
</clipPath>
</defs>
</svg>
