<svg width="53" height="53" viewBox="0 0 53 53" fill="none" xmlns="http://www.w3.org/2000/svg">
<g id="customer-support-svgrepo-com" clip-path="url(#clip0_340_599)">
<g id="surface1">
<path id="Vector" d="M26.4997 4.85059V20.2931C23.8897 21.1631 22.1497 23.5556 22.1497 26.3831C22.1497 27.4706 22.3672 28.5581 23.0197 29.4281L18.6697 32.9081C18.4522 32.9081 18.2347 32.6906 17.7997 32.6906C16.4947 32.6906 15.6247 33.5606 15.6247 34.8656C15.6247 36.1706 16.4947 37.0406 17.7997 37.0406C19.1047 37.0406 19.9747 36.1706 19.9747 34.8656V34.6481L24.3247 31.1681C25.4122 32.2556 26.9347 32.9081 28.6747 32.9081C32.3722 32.9081 35.1997 30.0806 35.1997 26.3831C35.1997 23.5556 33.4597 21.1631 30.8497 20.2931V5.06809H31.0672C38.6797 5.93809 44.9872 12.2456 45.8572 20.0756C46.5097 24.8606 45.2047 29.2106 42.5947 32.6906C40.6372 35.3006 39.5497 38.1281 39.5497 41.3906V48.3506H19.9747V41.8256H15.6247C13.2322 41.8256 11.2747 39.8681 11.2747 37.4756V30.9506L8.01217 29.6456C7.14217 29.2106 6.70717 27.9056 7.14217 27.0356L11.2747 20.5106C12.1447 12.4631 18.4522 5.93809 26.4997 4.85059ZM28.6747 23.3381C30.4147 23.3381 31.9372 24.8606 31.9372 26.6006C31.9372 28.3406 30.4147 29.8631 28.6747 29.8631C26.9347 29.8631 25.4122 28.3406 25.4122 26.6006C25.4122 24.8606 26.9347 23.3381 28.6747 23.3381Z" fill="url(#paint0_linear_340_599)"/>
</g>
</g>
<defs>
<linearGradient id="paint0_linear_340_599" x1="46.0234" y1="26.6006" x2="7.91938" y2="32.6104" gradientUnits="userSpaceOnUse">
<stop stop-color="#E31E24"/>
<stop offset="1" stop-color="#262065"/>
</linearGradient>
<clipPath id="clip0_340_599">
<rect width="52.2" height="52.2" fill="white" transform="matrix(-1 0 0 1 52.5996 0.500977)"/>
</clipPath>
</defs>
</svg>
