<svg width="53" height="53" viewBox="0 0 53 53" fill="none" xmlns="http://www.w3.org/2000/svg">
<g clip-path="url(#clip0_340_575)">
<path d="M23.5365 41.2792C21.5015 43.1597 18.6869 43.5809 16.1904 42.3789C15.288 41.9442 14.5264 41.3441 13.9301 40.6254L10.5309 48.1438C10.3763 48.4859 10.549 48.7437 10.6303 48.8386C10.7117 48.9334 10.9402 49.1434 11.3017 49.0428L13.7763 48.354C14.0583 48.2756 14.3434 48.2378 14.6244 48.2378C15.8103 48.2378 16.9263 48.909 17.4637 50.0212L18.5813 52.334C18.7446 52.6719 19.0507 52.7057 19.1782 52.7031C19.3032 52.7015 19.6107 52.6609 19.7652 52.3189L25.1721 40.3594C24.578 40.5304 24.0154 40.8365 23.5365 41.2792Z" fill="url(#paint0_linear_340_575)"/>
<path d="M42.4676 48.1438L39.0683 40.6254C38.4721 41.3442 37.7105 41.9443 36.808 42.3789C34.3115 43.5809 31.497 43.1597 29.462 41.2792C28.983 40.8365 28.4205 40.5304 27.8262 40.3594L33.2331 52.3189C33.3877 52.661 33.6952 52.7015 33.8201 52.7031C33.9475 52.7057 34.2537 52.6719 34.4169 52.334L35.5345 50.0212C36.0718 48.909 37.188 48.2378 38.3738 48.2378C38.6549 48.2378 38.9401 48.2756 39.222 48.354L41.6966 49.0428C42.0581 49.1435 42.2867 48.9335 42.3679 48.8386C42.4495 48.7436 42.6222 48.4858 42.4676 48.1438Z" fill="url(#paint1_linear_340_575)"/>
<path d="M45.1419 21.6879C42.3189 19.7548 41.4429 15.9168 43.1477 12.9503C44.1725 11.167 43.6392 9.40486 42.7983 8.35036C41.9574 7.29617 40.358 6.3842 38.3916 6.98623C35.1206 7.98812 31.5733 6.28021 30.3168 3.09764C29.5616 1.18459 27.8513 0.50293 26.5028 0.50293C25.1542 0.50293 23.444 1.18459 22.6887 3.09774C21.4322 6.28041 17.8853 7.98812 14.6139 6.98633C12.6473 6.3844 11.0482 7.29617 10.2072 8.35047C9.36638 9.40497 8.83306 11.1669 9.8578 12.9504C11.5627 15.9168 10.6867 19.7549 7.86359 21.688C6.16648 22.8501 5.88254 24.6691 6.18249 25.9839C6.48243 27.2987 7.52766 28.8142 9.56091 29.1248C12.9431 29.6415 15.3975 32.7193 15.1489 36.1318C14.9992 38.1832 16.2443 39.5394 17.4593 40.1246C18.6744 40.7097 20.511 40.8377 22.0215 39.4417C23.2778 38.2807 24.8906 37.7 26.5027 37.7C28.1154 37.7 29.7272 38.2804 30.9837 39.4417C32.4944 40.8378 34.3311 40.7098 35.5461 40.1246C36.7611 39.5395 38.0061 38.1833 37.8566 36.1319C37.6079 32.7194 40.0623 29.6416 43.4445 29.1248C45.4778 28.8142 46.5228 27.2986 46.8229 25.9839C47.123 24.6689 46.8388 22.8499 45.1419 21.6879ZM26.5028 34.7513C19.1035 34.7513 13.0838 28.7316 13.0838 21.3324C13.0838 13.9331 19.1034 7.91329 26.5028 7.91329C33.9021 7.91329 39.9217 13.933 39.9217 21.3323C39.9216 28.7315 33.902 34.7513 26.5028 34.7513Z" fill="url(#paint2_linear_340_575)"/>
<path d="M26.501 10.4141C20.4813 10.4141 15.584 15.3115 15.584 21.3311C15.584 27.3507 20.4812 32.2481 26.501 32.2481C32.5208 32.2481 37.4181 27.3507 37.4181 21.3311C37.4181 15.3115 32.5207 10.4141 26.501 10.4141ZM32.0957 20.2726L25.3013 25.2352C25.0857 25.3927 24.827 25.476 24.5635 25.476C24.4956 25.476 24.4274 25.4705 24.3595 25.4593C24.0283 25.4045 23.7328 25.2189 23.5397 24.944L21.5074 22.0504C21.1103 21.4848 21.2468 20.7046 21.8121 20.3075C22.3775 19.9104 23.1577 20.0468 23.5549 20.6122L24.8548 22.4631L30.62 18.2522C31.178 17.8449 31.9607 17.9664 32.3681 18.5245C32.7756 19.0824 32.6536 19.865 32.0957 20.2726Z" fill="url(#paint3_linear_340_575)"/>
</g>
<defs>
<linearGradient id="paint0_linear_340_575" x1="15.1513" y1="39.7556" x2="22.3091" y2="49.2364" gradientUnits="userSpaceOnUse">
<stop stop-color="#E31E24"/>
<stop offset="1" stop-color="#262065"/>
</linearGradient>
<linearGradient id="paint1_linear_340_575" x1="32.5088" y1="39.7556" x2="39.6666" y2="49.2365" gradientUnits="userSpaceOnUse">
<stop stop-color="#E31E24"/>
<stop offset="1" stop-color="#262065"/>
</linearGradient>
<linearGradient id="paint2_linear_340_575" x1="19.0874" y1="-1.45539" x2="43.0363" y2="25.7149" gradientUnits="userSpaceOnUse">
<stop stop-color="#E31E24"/>
<stop offset="1" stop-color="#262065"/>
</linearGradient>
<linearGradient id="paint3_linear_340_575" x1="22.5375" y1="9.34613" x2="35.6279" y2="23.9025" gradientUnits="userSpaceOnUse">
<stop stop-color="#E31E24"/>
<stop offset="1" stop-color="#262065"/>
</linearGradient>
<clipPath id="clip0_340_575">
<rect width="52.2" height="52.2" fill="white" transform="translate(0.400391 0.500977)"/>
</clipPath>
</defs>
</svg>
