<svg width="45" height="46" viewBox="0 0 45 46" fill="none" xmlns="http://www.w3.org/2000/svg">
<g id="Frame 80">
<path id="Vector" d="M38.2012 11.9519C38.2713 11.9519 38.3407 11.9381 38.4054 11.9113C38.4701 11.8844 38.529 11.8451 38.5785 11.7955L40.8434 9.53172C40.9076 9.46739 40.9543 9.38772 40.9791 9.30027C41.004 9.21281 41.006 9.12047 40.9851 9.032C40.9643 8.94352 40.9211 8.86185 40.8598 8.79471C40.7986 8.72758 40.7211 8.67721 40.6349 8.64838L38.6233 7.97767L37.9531 5.96659C37.9244 5.88024 37.874 5.80269 37.8068 5.74129C37.7397 5.6799 37.6579 5.6367 37.5693 5.61581C37.4808 5.59492 37.3883 5.59703 37.3008 5.62194C37.2133 5.64685 37.1336 5.69374 37.0693 5.75813L34.8054 8.02196C34.7559 8.0715 34.7165 8.13032 34.6897 8.19506C34.6629 8.2598 34.6491 8.32919 34.6491 8.39927V11.1973L33.0743 12.772C30.4514 10.3211 27.0302 8.90202 23.4425 8.77703V8.21635C23.4425 8.07482 23.3863 7.93908 23.2862 7.839C23.1861 7.73893 23.0504 7.6827 22.9088 7.6827C22.7673 7.6827 22.6316 7.73893 22.5315 7.839C22.4314 7.93908 22.3752 8.07482 22.3752 8.21635V8.77703C18.605 8.91513 15.0267 10.4746 12.3591 13.1423C9.69136 15.81 8.13184 19.3883 7.99374 23.1585H7.43306C7.29153 23.1585 7.15579 23.2147 7.05572 23.3148C6.95564 23.4149 6.89941 23.5506 6.89941 23.6921C6.89941 23.8337 6.95564 23.9694 7.05572 24.0695C7.15579 24.1696 7.29153 24.2258 7.43306 24.2258H7.99374C8.13184 27.9959 9.69136 31.5742 12.3591 34.2419C15.0267 36.9096 18.605 38.4691 22.3752 38.6072V39.1679C22.3752 39.3094 22.4314 39.4452 22.5315 39.5453C22.6316 39.6453 22.7673 39.7016 22.9088 39.7016C23.0504 39.7016 23.1861 39.6453 23.2862 39.5453C23.3863 39.4452 23.4425 39.3094 23.4425 39.1679V38.6072C27.2127 38.4691 30.7909 36.9096 33.4586 34.2419C36.1263 31.5742 37.6859 27.9959 37.8239 24.2258H38.3846C38.5262 24.2258 38.6619 24.1696 38.762 24.0695C38.8621 23.9694 38.9183 23.8337 38.9183 23.6921C38.9183 23.5506 38.8621 23.4149 38.762 23.3148C38.6619 23.2147 38.5262 23.1585 38.3846 23.1585H37.8239C37.699 19.5708 36.2799 16.1496 33.829 13.5266L35.4037 11.9519H38.2012ZM35.7164 8.62024L37.2131 7.12352L37.6946 8.56813C37.7209 8.64671 37.765 8.71809 37.8237 8.77662C37.8823 8.83515 37.9537 8.87921 38.0323 8.90531L39.478 9.38736L37.9802 10.8846H35.7164V8.62024ZM36.7567 23.1585H36.25C36.1085 23.1585 35.9728 23.2147 35.8727 23.3148C35.7726 23.4149 35.7164 23.5506 35.7164 23.6921C35.7164 23.8337 35.7726 23.9694 35.8727 24.0695C35.9728 24.1696 36.1085 24.2258 36.25 24.2258H36.7567C36.6193 27.713 35.1724 31.0202 32.7047 33.488C30.237 35.9557 26.9297 37.4026 23.4425 37.5399V37.0333C23.4425 36.8918 23.3863 36.7561 23.2862 36.656C23.1861 36.5559 23.0504 36.4997 22.9088 36.4997C22.7673 36.4997 22.6316 36.5559 22.5315 36.656C22.4314 36.7561 22.3752 36.8918 22.3752 37.0333V37.5399C18.888 37.4026 15.5807 35.9557 13.113 33.488C10.6453 31.0202 9.19842 27.713 9.06104 24.2258H9.56765C9.70918 24.2258 9.84492 24.1696 9.945 24.0695C10.0451 23.9694 10.1013 23.8337 10.1013 23.6921C10.1013 23.5506 10.0451 23.4149 9.945 23.3148C9.84492 23.2147 9.70918 23.1585 9.56765 23.1585H9.06104C9.19842 19.6713 10.6453 16.364 13.113 13.8963C15.5807 11.4285 18.888 9.98171 22.3752 9.84433V10.3509C22.3752 10.4925 22.4314 10.6282 22.5315 10.7283C22.6316 10.8284 22.7673 10.8846 22.9088 10.8846C23.0504 10.8846 23.1861 10.8284 23.2862 10.7283C23.3863 10.6282 23.4425 10.4925 23.4425 10.3509V9.84433C26.7472 9.96859 29.8974 11.2752 32.3199 13.5265L30.8113 15.0351C28.5373 12.9583 25.5408 11.854 22.4629 11.9586C19.3851 12.0632 16.4704 13.3683 14.3426 15.5946C12.2149 17.821 11.043 20.7918 11.0779 23.8712C11.1128 26.9507 12.3515 29.8941 14.5292 32.0718C16.7068 34.2494 19.6503 35.4882 22.7297 35.523C25.8091 35.5579 28.7799 34.3861 31.0063 32.2583C33.2327 30.1306 34.5378 27.2159 34.6424 24.138C34.7469 21.0602 33.6427 18.0636 31.5659 15.7897L33.0746 14.281C35.3258 16.7035 36.6324 19.8538 36.7567 23.1585ZM28.779 24.2258H30.3529C30.2393 25.8335 29.606 27.3607 28.5486 28.577L27.4365 27.4657C27.3361 27.3673 27.2009 27.3125 27.0603 27.3132C26.9198 27.3139 26.7851 27.3701 26.6857 27.4695C26.5863 27.5689 26.5302 27.7035 26.5294 27.8441C26.5287 27.9847 26.5835 28.1199 26.6819 28.2203L27.794 29.3316C26.5776 30.3892 25.0503 31.0225 23.4425 31.1362V30.6296C23.4425 30.488 23.3863 30.3523 23.2862 30.2522C23.1861 30.1521 23.0504 30.0959 22.9088 30.0959C22.7673 30.0959 22.6316 30.1521 22.5315 30.2522C22.4314 30.3523 22.3752 30.488 22.3752 30.6296V31.1362C20.7674 31.0225 19.2401 30.3892 18.0237 29.3317L19.1358 28.2203C19.2342 28.1199 19.289 27.9847 19.2883 27.8442C19.2876 27.7036 19.2314 27.5689 19.132 27.4695C19.0326 27.3701 18.898 27.314 18.7574 27.3133C18.6168 27.3125 18.4816 27.3673 18.3812 27.4657L17.2691 28.5771C16.2116 27.3607 15.5784 25.8335 15.4648 24.2258H15.9714C16.113 24.2258 16.2487 24.1696 16.3488 24.0695C16.4489 23.9694 16.5051 23.8337 16.5051 23.6921C16.5051 23.5506 16.4489 23.4149 16.3488 23.3148C16.2487 23.2147 16.113 23.1585 15.9714 23.1585H15.4648C15.5784 21.5508 16.2116 20.0236 17.2691 18.8072L18.3812 19.9186C18.4816 20.017 18.6168 20.0718 18.7574 20.071C18.8979 20.0703 19.0326 20.0142 19.132 19.9148C19.2314 19.8154 19.2875 19.6807 19.2883 19.5402C19.289 19.3996 19.2342 19.2644 19.1358 19.164L18.0237 18.0526C19.2401 16.9951 20.7674 16.3617 22.3752 16.2481V17.822C22.3752 17.9635 22.4314 18.0993 22.5315 18.1994C22.6316 18.2994 22.7673 18.3557 22.9088 18.3557C23.0504 18.3557 23.1861 18.2994 23.2862 18.1994C23.3863 18.0993 23.4425 17.9635 23.4425 17.822V16.2481C25.0503 16.3617 26.5775 16.9951 27.7939 18.0525L27.4371 18.4093L26.6819 19.1639L26.6809 19.1655L24.6661 21.1802C24.6158 21.2296 24.5757 21.2884 24.5482 21.3534C24.5207 21.4183 24.5064 21.4881 24.506 21.5586C24.5057 21.6291 24.5193 21.699 24.5461 21.7643C24.5729 21.8295 24.6124 21.8887 24.6623 21.9386C24.7122 21.9885 24.7714 22.028 24.8367 22.0548C24.9019 22.0816 24.9718 22.0952 25.0423 22.0949C25.1128 22.0945 25.1826 22.0802 25.2475 22.0527C25.3125 22.0252 25.3714 21.9851 25.4207 21.9348L28.1916 19.1639L28.5486 18.8072C29.606 20.0235 30.2393 21.5507 30.3529 23.1585H28.779C28.6374 23.1585 28.5017 23.2147 28.4016 23.3148C28.3015 23.4149 28.2453 23.5506 28.2453 23.6921C28.2453 23.8337 28.3015 23.9694 28.4016 24.0695C28.5017 24.1696 28.6374 24.2258 28.779 24.2258ZM28.5482 17.2981C26.9278 15.8597 24.8194 15.094 22.6535 15.1574C20.4877 15.2208 18.4277 16.1085 16.8942 17.6393C16.887 17.6457 16.8778 17.6479 16.8709 17.6547C16.8641 17.6616 16.8618 17.671 16.8553 17.6782C15.264 19.2752 14.3705 21.4377 14.3705 23.6922C14.3705 25.9466 15.264 28.1092 16.8553 29.7061C16.8617 29.7133 16.864 29.7227 16.8709 29.7296C16.8778 29.7365 16.887 29.7386 16.8942 29.7451C18.4912 31.3368 20.654 32.2306 22.9088 32.2306C25.1636 32.2306 27.3265 31.3368 28.9235 29.7451C28.9307 29.7386 28.9399 29.7364 28.9468 29.7296C28.9536 29.7228 28.9559 29.7133 28.9623 29.7061C30.4928 28.1726 31.3803 26.1127 31.4436 23.947C31.5068 21.7813 30.7411 19.6731 29.3028 18.0528L30.8114 16.5441C32.6867 18.6165 33.6778 21.3398 33.5732 24.1327C33.4686 26.9257 32.2766 29.5671 30.2515 31.4934C28.2265 33.4198 25.5288 34.4784 22.7341 34.4434C19.9394 34.4084 17.2691 33.2825 15.2929 31.3061C13.3167 29.3297 12.1913 26.6592 12.1566 23.8645C12.122 21.0698 13.1809 18.3723 15.1075 16.3475C17.0341 14.3227 19.6757 13.131 22.4686 13.0268C25.2616 12.9225 27.9847 13.9139 30.0569 15.7895L28.5482 17.2981ZM25.3103 23.1585H24.4117C24.3356 22.9327 24.2086 22.7275 24.0406 22.5586C23.8725 22.3898 23.6679 22.2618 23.4425 22.1847V20.7571C23.4425 20.6155 23.3863 20.4798 23.2862 20.3797C23.1861 20.2796 23.0504 20.2234 22.9088 20.2234C22.7673 20.2234 22.6316 20.2796 22.5315 20.3797C22.4314 20.4798 22.3752 20.6155 22.3752 20.7571V22.1896C22.0359 22.3094 21.747 22.5403 21.5553 22.8449C21.3636 23.1494 21.2804 23.5098 21.3191 23.8675C21.3578 24.2253 21.5162 24.5595 21.7687 24.8159C22.0211 25.0724 22.3527 25.2361 22.7098 25.2806C22.7769 25.2889 22.8444 25.293 22.912 25.2931C23.2423 25.2927 23.5644 25.1898 23.8338 24.9987C24.1033 24.8075 24.3067 24.5375 24.4162 24.2258H25.3103C25.4518 24.2258 25.5875 24.1696 25.6876 24.0695C25.7877 23.9694 25.8439 23.8337 25.8439 23.6921C25.8439 23.5506 25.7877 23.4149 25.6876 23.3148C25.5875 23.2147 25.4518 23.1585 25.3103 23.1585ZM23.2361 24.1137C23.1691 24.1658 23.0905 24.2011 23.0071 24.2168C22.9236 24.2324 22.8376 24.2279 22.7563 24.2037C22.6749 24.1794 22.6005 24.1361 22.5392 24.0773C22.4779 24.0186 22.4316 23.946 22.404 23.8657C22.3764 23.7854 22.3683 23.6997 22.3805 23.6156C22.3927 23.5316 22.4248 23.4517 22.474 23.3825C22.5233 23.3134 22.5883 23.257 22.6638 23.218C22.7392 23.179 22.8229 23.1586 22.9078 23.1585C22.9304 23.1586 22.953 23.16 22.9755 23.1627C23.0802 23.1759 23.1787 23.2198 23.2584 23.289C23.3381 23.3582 23.3956 23.4494 23.4234 23.5512C23.4513 23.653 23.4484 23.7607 23.4151 23.8609C23.3817 23.961 23.3195 24.049 23.2361 24.1137Z" fill="white"/>
</g>
</svg>
