<svg width="45" height="46" viewBox="0 0 45 46" fill="none" xmlns="http://www.w3.org/2000/svg">
<path d="M42.8083 10.2175V17.9151C42.8083 18.2553 42.6811 18.5816 42.4547 18.8222C42.2283 19.0628 41.9212 19.198 41.601 19.198C41.2808 19.198 40.9737 19.0628 40.7473 18.8222C40.5209 18.5816 40.3937 18.2553 40.3937 17.9151V13.3145L26.7609 27.8013C26.5934 27.9788 26.3807 28.1003 26.149 28.1509C25.9173 28.2015 26.0672 28.1451 25.8475 28.0522L16.8427 20.7265L4.54505 33.8405C4.31735 34.0742 4.01238 34.2035 3.69583 34.2006C3.37928 34.1977 3.07648 34.0628 2.85263 33.8249C2.62879 33.587 2.50182 33.2653 2.49907 32.9289C2.49632 32.5925 2.61801 32.2684 2.83793 32.0265L15.7006 18.3146C15.8673 18.1376 16.0791 18.0163 16.31 17.9657C16.5408 17.9151 16.7806 17.9374 16.9996 18.0298L26.0068 25.3555L38.6866 11.5004H34.3572C34.037 11.5004 33.7299 11.3653 33.5035 11.1247C33.2771 10.8841 33.1499 10.5578 33.1499 10.2175C33.1499 9.87724 33.2771 9.55093 33.5035 9.31033C33.7299 9.06974 34.037 8.93457 34.3572 8.93457H41.601C41.9208 8.93592 42.2271 9.07152 42.4533 9.31182C42.6794 9.55213 42.807 9.87766 42.8083 10.2175Z" fill="white"/>
</svg>
