<svg width="54" height="54" viewBox="0 0 54 54" fill="none" xmlns="http://www.w3.org/2000/svg">
<g id="environment-management-resources-natural-sustainability-ecology-tree-svgrepo-com">
<g id="Environment_management">
<path id="Vector" d="M44.1441 28.6111C44.1441 25.8357 42.8971 23.2736 40.7878 21.199C40.392 20.8129 40.0964 20.3362 39.9265 19.8101C39.7565 19.284 39.7174 18.7245 39.8125 18.1799C39.9313 17.498 39.9909 16.8072 39.9908 16.1151C39.9908 9.21294 34.1392 3.61768 26.9138 3.61768C19.6885 3.61768 13.8369 9.21294 13.8369 16.1151C13.8367 16.8072 13.8964 17.498 14.0152 18.1799C14.1103 18.7245 14.0711 19.284 13.9012 19.8101C13.7313 20.3362 13.4356 20.8129 13.0399 21.199C10.9305 23.2736 9.68359 25.8357 9.68359 28.6111C9.68359 34.5401 15.376 39.5043 23.0129 40.7852C24.4835 41.0318 25.6571 42.2428 25.6571 43.734C25.6571 45.2818 24.4024 46.5365 22.8545 46.5365H16.7947C16.1022 46.5365 15.5408 47.0979 15.5408 47.7905C15.5408 48.483 16.1022 49.0444 16.7947 49.0444H36.5885C37.281 49.0444 37.8424 48.483 37.8424 47.7905C37.8424 47.0979 37.281 46.5365 36.5885 46.5365H30.9731C29.4253 46.5365 28.1705 45.2818 28.1705 43.734C28.1705 42.2428 29.3441 41.0318 30.8147 40.7852C38.4517 39.5043 44.1441 34.5401 44.1441 28.6111ZM26.7519 38.9455C25.5492 38.9455 24.626 37.879 24.7984 36.6887L25.4344 32.2977C25.5658 31.3903 25.0169 30.5224 24.1408 30.2522L22.979 29.8939C22.1715 29.6449 21.9166 28.6277 22.5113 28.0273C22.7948 27.7412 23.2096 27.6284 23.5989 27.7317L25.675 28.2824C26.4869 28.4978 27.3408 28.498 28.1528 28.283L30.2505 27.7275C30.6307 27.6268 31.0357 27.7371 31.3123 28.0166C31.9023 28.6126 31.6337 29.6232 30.8257 29.8477L29.3957 30.2449C28.4216 30.5155 27.8106 31.4798 27.9819 32.4762L28.6972 36.6372C28.9046 37.8433 27.9757 38.9455 26.7519 38.9455Z" fill="url(#paint0_linear_156_374)"/>
</g>
</g>
<defs>
<linearGradient id="paint0_linear_156_374" x1="9.68359" y1="26.331" x2="43.5427" y2="30.8435" gradientUnits="userSpaceOnUse">
<stop stop-color="#E31E24"/>
<stop offset="1" stop-color="#262065"/>
</linearGradient>
</defs>
</svg>
