<svg width="25" height="26" viewBox="0 0 25 26" fill="none" xmlns="http://www.w3.org/2000/svg">
<path d="M17.5279 2.57617H7.28795C4.46026 2.57617 2.16797 4.86847 2.16797 7.69616V17.9361C2.16797 20.7638 4.46026 23.0561 7.28795 23.0561H17.5279C20.3556 23.0561 22.6479 20.7638 22.6479 17.9361V7.69616C22.6479 4.86847 20.3556 2.57617 17.5279 2.57617Z" stroke="url(#paint0_linear_2007_513)" stroke-width="2.04799" stroke-linecap="round" stroke-linejoin="round"/>
<path d="M16.5031 12.1705C16.6295 13.0227 16.484 13.8931 16.0872 14.6578C15.6904 15.4225 15.0625 16.0426 14.293 16.43C13.5234 16.8173 12.6513 16.9521 11.8007 16.8153C10.9501 16.6784 10.1644 16.2768 9.55516 15.6676C8.94596 15.0584 8.54437 14.2726 8.40749 13.422C8.27062 12.5714 8.40544 11.6993 8.79278 10.9298C9.18012 10.1602 9.80025 9.53239 10.565 9.13559C11.3297 8.73879 12.2001 8.59323 13.0523 8.7196C13.9216 8.84851 14.7264 9.25358 15.3478 9.87498C15.9692 10.4964 16.3742 11.3012 16.5031 12.1705Z" stroke="#CD28E8" stroke-width="2.04799" stroke-linecap="round" stroke-linejoin="round"/>
<path d="M18.04 7.18408H18.05" stroke="#CD28E8" stroke-width="2.04799" stroke-linecap="round" stroke-linejoin="round"/>
<defs>
<linearGradient id="paint0_linear_2007_513" x1="2.67997" y1="2.06417" x2="20.0879" y2="25.1041" gradientUnits="userSpaceOnUse">
<stop stop-color="#CD28E8"/>
<stop offset="0.29" stop-color="#FD1AAF"/>
<stop offset="1" stop-color="#E9B122"/>
</linearGradient>
</defs>
</svg>
