<svg width="15" height="12" viewBox="0 0 15 12" fill="none" xmlns="http://www.w3.org/2000/svg">
<path d="M1.76004 1.67996L6.15754 5.00079L6.159 5.00201C6.64729 5.36009 6.89158 5.53923 7.15914 5.60844C7.39564 5.66961 7.64424 5.66961 7.88074 5.60844C8.14855 5.53917 8.39355 5.3595 8.8827 5.00079C8.8827 5.00079 11.7033 2.83624 13.28 1.67996M1.04004 8.7361V3.2641C1.04004 2.45763 1.04004 2.05409 1.19699 1.74605C1.33505 1.4751 1.55518 1.25497 1.82613 1.11691C2.13417 0.959961 2.5377 0.959961 3.34418 0.959961H11.6962C12.5027 0.959961 12.9053 0.959961 13.2134 1.11691C13.4843 1.25497 13.7052 1.4751 13.8432 1.74605C14 2.05379 14 2.45684 14 3.26174V8.73854C14 9.54344 14 9.94591 13.8432 10.2536C13.7052 10.5246 13.4843 10.7451 13.2134 10.8832C12.9056 11.04 12.5032 11.04 11.6983 11.04H3.34181C2.53691 11.04 2.13386 11.04 1.82613 10.8832C1.55518 10.7451 1.33505 10.5246 1.19699 10.2536C1.04004 9.9456 1.04004 9.54258 1.04004 8.7361Z" stroke="white" stroke-width="1.0368" stroke-linecap="round" stroke-linejoin="round"/>
</svg>
