<svg width="54" height="53" viewBox="0 0 54 53" fill="none" xmlns="http://www.w3.org/2000/svg">
<g id="quality-medal-svgrepo-com" clip-path="url(#clip0_156_357)">
<g id="Group">
<g id="Group_2">
<path id="Vector" d="M24.0658 41.4296C22.0308 43.3101 19.2162 43.7313 16.7197 42.5293C15.8173 42.0946 15.0557 41.4945 14.4594 40.7758L11.0602 48.2942C10.9056 48.6362 11.0783 48.8941 11.1596 48.989C11.241 49.0838 11.4695 49.2937 11.831 49.1932L14.3056 48.5044C14.5876 48.426 14.8727 48.3882 15.1537 48.3882C16.3396 48.3882 17.4556 49.0594 17.993 50.1716L19.1106 52.4844C19.2739 52.8223 19.58 52.8561 19.7075 52.8535C19.8325 52.8519 20.14 52.8113 20.2945 52.4693L25.7014 40.5098C25.1073 40.6807 24.5447 40.9869 24.0658 41.4296Z" fill="url(#paint0_linear_156_357)"/>
</g>
</g>
<g id="Group_3">
<g id="Group_4">
<path id="Vector_2" d="M42.9969 48.2942L39.5976 40.7758C39.0014 41.4946 38.2398 42.0947 37.3373 42.5293C34.8408 43.7313 32.0263 43.3101 29.9913 41.4296C29.5123 40.9869 28.9498 40.6807 28.3555 40.5098L33.7623 52.4693C33.917 52.8114 34.2245 52.8519 34.3494 52.8535C34.4768 52.8561 34.783 52.8223 34.9462 52.4844L36.0638 50.1716C36.6011 49.0594 37.7173 48.3882 38.9031 48.3882C39.1842 48.3882 39.4694 48.426 39.7513 48.5044L42.2259 49.1932C42.5874 49.2938 42.816 49.0839 42.8972 48.989C42.9788 48.894 43.1515 48.6361 42.9969 48.2942Z" fill="url(#paint1_linear_156_357)"/>
</g>
</g>
<g id="Group_5">
<g id="Group_6">
<path id="Vector_3" d="M45.6693 21.8383C42.8462 19.9052 41.9702 16.0672 43.6751 13.1007C44.6998 11.3174 44.1665 9.55525 43.3257 8.50075C42.4848 7.44656 40.8853 6.53459 38.919 7.13662C35.6479 8.13851 32.1006 6.4306 30.8442 3.24803C30.0889 1.33498 28.3786 0.65332 27.0301 0.65332C25.6816 0.65332 23.9713 1.33498 23.216 3.24813C21.9596 6.4308 18.4126 8.13851 15.1413 7.13672C13.1747 6.53479 11.5755 7.44656 10.7345 8.50086C9.89373 9.55536 9.36041 11.3173 10.3851 13.1008C12.09 16.0672 11.214 19.9053 8.39094 21.8384C6.69382 23.0005 6.40988 24.8195 6.70983 26.1343C7.00978 27.449 8.055 28.9646 10.0883 29.2752C13.4704 29.7919 15.9249 32.8697 15.6762 36.2822C15.5265 38.3336 16.7717 39.6897 17.9867 40.275C19.2017 40.8601 21.0383 40.9881 22.5489 39.5921C23.8051 38.4311 25.4179 37.8504 27.03 37.8504C28.6427 37.8504 30.2546 38.4308 31.5111 39.5921C33.0218 40.9882 34.8585 40.8602 36.0735 40.275C37.2884 39.6898 38.5335 38.3337 38.3839 36.2823C38.1353 32.8698 40.5897 29.792 43.9719 29.2752C46.0051 28.9646 47.0501 27.4489 47.3503 26.1343C47.6503 24.8193 47.3662 23.0003 45.6693 21.8383ZM27.0301 34.9017C19.6309 34.9017 13.6111 28.882 13.6111 21.4827C13.6111 14.0835 19.6308 8.06368 27.0301 8.06368C34.4295 8.06368 40.4491 14.0834 40.4491 21.4826C40.449 28.8819 34.4294 34.9017 27.0301 34.9017Z" fill="url(#paint2_linear_156_357)"/>
</g>
</g>
<g id="Group_7">
<g id="Group_8">
<path id="Vector_4" d="M27.0284 10.5645C21.0086 10.5645 16.1113 15.4619 16.1113 21.4815C16.1113 27.5011 21.0085 32.3985 27.0284 32.3985C33.0482 32.3985 37.9454 27.5011 37.9454 21.4815C37.9454 15.4619 33.0481 10.5645 27.0284 10.5645ZM32.623 20.423L25.8287 25.3856C25.6131 25.5431 25.3543 25.6264 25.0908 25.6264C25.0229 25.6264 24.9547 25.6209 24.8868 25.6097C24.5556 25.5549 24.2601 25.3693 24.067 25.0944L22.0347 22.2008C21.6376 21.6352 21.7741 20.855 22.3394 20.4579C22.9049 20.0608 23.685 20.1972 24.0822 20.7626L25.3821 22.6135L31.1474 18.4026C31.7054 17.9953 32.4881 18.1168 32.8955 18.6749C33.303 19.2328 33.1809 20.0154 32.623 20.423Z" fill="url(#paint3_linear_156_357)"/>
</g>
</g>
</g>
<defs>
<linearGradient id="paint0_linear_156_357" x1="15.6806" y1="39.906" x2="22.8384" y2="49.3868" gradientUnits="userSpaceOnUse">
<stop stop-color="#E31E24"/>
<stop offset="1" stop-color="#262065"/>
</linearGradient>
<linearGradient id="paint1_linear_156_357" x1="33.0381" y1="39.906" x2="40.1959" y2="49.3869" gradientUnits="userSpaceOnUse">
<stop stop-color="#E31E24"/>
<stop offset="1" stop-color="#262065"/>
</linearGradient>
<linearGradient id="paint2_linear_156_357" x1="19.6147" y1="-1.305" x2="43.5636" y2="25.8653" gradientUnits="userSpaceOnUse">
<stop stop-color="#E31E24"/>
<stop offset="1" stop-color="#262065"/>
</linearGradient>
<linearGradient id="paint3_linear_156_357" x1="23.0648" y1="9.49652" x2="36.1552" y2="24.0529" gradientUnits="userSpaceOnUse">
<stop stop-color="#E31E24"/>
<stop offset="1" stop-color="#262065"/>
</linearGradient>
<clipPath id="clip0_156_357">
<rect width="52.2" height="52.2" fill="white" transform="translate(0.928711 0.651367)"/>
</clipPath>
</defs>
</svg>
