<svg width="71" height="72" viewBox="0 0 71 72" fill="none" xmlns="http://www.w3.org/2000/svg">
<circle cx="35.4077" cy="35.8159" r="35.0659" fill="white" stroke="url(#paint0_linear_162_679)" stroke-width="0.5"/>
<g clip-path="url(#clip0_162_679)">
<path d="M40.5279 25.5762H30.288C27.4603 25.5762 25.168 27.8685 25.168 30.6962V40.9361C25.168 43.7638 27.4603 46.0561 30.288 46.0561H40.5279C43.3556 46.0561 45.6479 43.7638 45.6479 40.9361V30.6962C45.6479 27.8685 43.3556 25.5762 40.5279 25.5762Z" stroke="url(#paint1_linear_162_679)" stroke-width="2.04799" stroke-linecap="round" stroke-linejoin="round"/>
<path d="M39.5031 35.1705C39.6295 36.0227 39.484 36.8931 39.0872 37.6578C38.6904 38.4225 38.0625 39.0426 37.293 39.43C36.5234 39.8173 35.6513 39.9521 34.8007 39.8153C33.9501 39.6784 33.1644 39.2768 32.5552 38.6676C31.946 38.0584 31.5444 37.2726 31.4075 36.422C31.2706 35.5714 31.4054 34.6993 31.7928 33.9298C32.1801 33.1602 32.8003 32.5324 33.565 32.1356C34.3297 31.7388 35.2001 31.5932 36.0523 31.7196C36.9216 31.8485 37.7264 32.2536 38.3478 32.875C38.9692 33.4964 39.3742 34.3012 39.5031 35.1705Z" stroke="#CD28E8" stroke-width="2.04799" stroke-linecap="round" stroke-linejoin="round"/>
<path d="M41.04 30.1841H41.05" stroke="#CD28E8" stroke-width="2.04799" stroke-linecap="round" stroke-linejoin="round"/>
</g>
<defs>
<linearGradient id="paint0_linear_162_679" x1="0.591797" y1="35.8159" x2="68.1388" y2="47.6829" gradientUnits="userSpaceOnUse">
<stop stop-color="#E31E24"/>
<stop offset="1" stop-color="#262065"/>
</linearGradient>
<linearGradient id="paint1_linear_162_679" x1="25.68" y1="25.0642" x2="43.0879" y2="48.1041" gradientUnits="userSpaceOnUse">
<stop stop-color="#CD28E8"/>
<stop offset="0.29" stop-color="#FD1AAF"/>
<stop offset="1" stop-color="#E9B122"/>
</linearGradient>
<clipPath id="clip0_162_679">
<rect width="24.5759" height="24.5759" fill="white" transform="translate(23.1201 23.5278)"/>
</clipPath>
</defs>
</svg>
