<svg width="72" height="72" viewBox="0 0 72 72" fill="none" xmlns="http://www.w3.org/2000/svg">
<circle cx="35.9995" cy="35.8159" r="35.0659" fill="white" stroke="url(#paint0_linear_162_680)" stroke-width="0.5"/>
<path d="M43.9073 27.8074C41.7955 25.6906 38.9832 24.5264 35.9945 24.5264C29.8255 24.5264 24.8057 29.5462 24.8057 35.7151C24.8057 37.6858 25.3198 39.611 26.2976 41.3095L24.71 47.1055L30.642 45.5482C32.275 46.4402 34.1146 46.9089 35.9894 46.9089H35.9945C42.1584 46.9089 47.2891 41.8891 47.2891 35.7202C47.2891 32.7315 46.019 29.9242 43.9073 27.8074ZM35.9945 45.024C34.3212 45.024 32.6832 44.5754 31.2569 43.7287L30.9192 43.5271L27.4013 44.4494L28.3388 41.0172L28.117 40.6644C27.1846 39.1826 26.6957 37.4741 26.6957 35.7151C26.6957 30.5895 30.8688 26.4164 35.9995 26.4164C38.4842 26.4164 40.8178 27.384 42.5717 29.143C44.3256 30.9019 45.4041 33.2355 45.3991 35.7202C45.3991 40.8509 41.1202 45.024 35.9945 45.024ZM41.095 38.0587C40.8178 37.9176 39.4418 37.2423 39.1848 37.1515C38.9278 37.0558 38.7413 37.0104 38.5548 37.2927C38.3683 37.5749 37.8341 38.1999 37.6678 38.3914C37.5065 38.5778 37.3402 38.603 37.063 38.4619C35.4199 37.6404 34.3414 36.9953 33.2578 35.1355C32.9705 34.6416 33.5451 34.6769 34.0793 33.6084C34.17 33.4219 34.1247 33.2607 34.0541 33.1195C33.9835 32.9784 33.4241 31.6025 33.1923 31.0431C32.9655 30.4988 32.7336 30.5744 32.5623 30.5643C32.401 30.5542 32.2145 30.5542 32.028 30.5542C31.8415 30.5542 31.5391 30.6248 31.2821 30.9019C31.0251 31.1842 30.3043 31.8595 30.3043 33.2355C30.3043 34.6114 31.3073 35.9419 31.4434 36.1284C31.5845 36.3149 33.414 39.1373 36.2213 40.3519C37.9954 41.118 38.6909 41.1835 39.5779 41.0525C40.1172 40.9718 41.231 40.3771 41.4629 39.7219C41.6947 39.0667 41.6947 38.5073 41.6242 38.3914C41.5586 38.2654 41.3722 38.1948 41.095 38.0587Z" fill="#13B28C"/>
<defs>
<linearGradient id="paint0_linear_162_680" x1="1.18359" y1="35.8159" x2="68.7306" y2="47.6829" gradientUnits="userSpaceOnUse">
<stop stop-color="#E31E24"/>
<stop offset="1" stop-color="#262065"/>
</linearGradient>
</defs>
</svg>
