<svg width="54" height="54" viewBox="0 0 54 54" fill="none" xmlns="http://www.w3.org/2000/svg">
<circle cx="27" cy="27" r="27" fill="url(#paint0_linear_2004_414)"/>
<path d="M35.425 18.1512L35.015 21.1442C33.949 21.0622 33.17 21.2809 32.678 21.8002C32.186 22.3196 31.8853 23.0166 31.776 23.8912C31.6667 24.7659 31.6393 25.7089 31.694 26.7202H35.425V35.3712H28.414V25.0802C28.414 22.5656 29.0427 20.6796 30.3 19.4222C31.5847 18.1649 33.293 17.7412 35.425 18.1512ZM25.011 18.1512L24.601 21.1442C23.535 21.0622 22.756 21.2809 22.264 21.8002C21.772 22.3196 21.4713 23.0166 21.362 23.8912C21.2527 24.7659 21.2253 25.7089 21.28 26.7202H25.011V35.3712H18V25.0802C18 22.5656 18.6287 20.6796 19.886 19.4222C21.1707 18.1649 22.879 17.7412 25.011 18.1512Z" fill="white"/>
<defs>
<linearGradient id="paint0_linear_2004_414" x1="17.1974" y1="-2.64122" x2="49.5726" y2="33.3596" gradientUnits="userSpaceOnUse">
<stop stop-color="#E31E24"/>
<stop offset="1" stop-color="#262065"/>
</linearGradient>
</defs>
</svg>
