<svg width="96" height="17" viewBox="0 0 96 17" fill="none" xmlns="http://www.w3.org/2000/svg">
<path d="M8.72727 0.5L11.0357 5.70317L17.0274 6.1535L12.4623 9.81956L13.857 15.3011L8.72727 12.3636L3.59751 15.3011L4.99222 9.81956L0.427143 6.1535L6.41888 5.70317L8.72727 0.5Z" fill="#FE8B75"/>
<path d="M28.364 0.5L30.6724 5.70317L36.6641 6.1535L32.0991 9.81956L33.4938 15.3011L28.364 12.3636L23.2342 15.3011L24.6289 9.81956L20.0639 6.1535L26.0556 5.70317L28.364 0.5Z" fill="#FE8B75"/>
<path d="M47.9997 0.5L50.3081 5.70317L56.2999 6.1535L51.7348 9.81956L53.1295 15.3011L47.9997 12.3636L42.87 15.3011L44.2647 9.81956L39.6996 6.1535L45.6913 5.70317L47.9997 0.5Z" fill="#FE8B75"/>
<path d="M67.6365 0.5L69.9448 5.70317L75.9366 6.1535L71.3715 9.81956L72.7662 15.3011L67.6365 12.3636L62.5067 15.3011L63.9014 9.81956L59.3363 6.1535L65.3281 5.70317L67.6365 0.5Z" fill="#FE8B75"/>
<path d="M87.2732 0.5L89.5816 5.70317L95.5733 6.1535L91.0082 9.81956L92.4029 15.3011L87.2732 12.3636L82.1434 15.3011L83.5381 9.81956L78.973 6.1535L84.9648 5.70317L87.2732 0.5Z" fill="#FE8B75"/>
</svg>
