<svg width="573" height="80" viewBox="0 0 573 80" fill="none" xmlns="http://www.w3.org/2000/svg">
<path d="M35.7985 79.5825C30.6993 79.5825 26.0046 78.7033 21.7143 76.945C17.4239 75.1515 13.6963 72.5492 10.5312 69.138C7.36625 65.7268 4.90458 61.5772 3.14625 56.689C1.38792 51.8008 0.50875 46.2445 0.50875 40.02C0.50875 31.8262 2.00333 24.7928 4.9925 18.92C7.98167 13.012 12.1313 8.4755 17.4415 5.3105C22.7517 2.11033 28.8707 0.510245 35.7985 0.510245C44.7308 0.510245 51.8521 2.58508 57.1623 6.73475C62.5076 10.8844 66.1473 16.6166 68.0815 23.9312L56.8985 25.9357C55.3512 21.3992 52.8543 17.7771 49.408 15.0692C45.9617 12.3614 41.6362 10.9899 36.4315 10.9547C31.051 10.9196 26.5673 12.1152 22.9803 14.5417C19.4284 16.9682 16.7558 20.3794 14.9623 24.7752C13.1688 29.1359 12.2544 34.2175 12.2193 40.02C12.1841 45.8225 13.0633 50.9041 14.8568 55.2647C16.6503 59.5902 19.3405 62.9662 22.9275 65.3927C26.5497 67.8192 31.051 69.0501 36.4315 69.0852C40.757 69.1556 44.4671 68.3643 47.5618 66.7115C50.6916 65.0235 53.1708 62.5618 54.9995 59.3265C56.8282 56.0912 58.0063 52.1173 58.5338 47.405H43.7638V38.543H70.2443C70.3146 39.176 70.3673 40.02 70.4025 41.075C70.4377 42.0948 70.4553 42.7454 70.4553 43.0267C70.4553 50.0601 69.1013 56.3373 66.3935 61.8585C63.6857 67.3797 59.747 71.7227 54.5775 74.8877C49.408 78.0176 43.1483 79.5825 35.7985 79.5825ZM102.016 79.5825C96.3544 79.5825 91.3783 78.3517 87.088 75.89C82.8328 73.3932 79.5096 69.9292 77.1182 65.4982C74.7621 61.0321 73.584 55.8626 73.584 49.9897C73.584 43.7652 74.7445 38.3672 77.0655 33.7955C79.4217 29.2238 82.6922 25.6896 86.877 23.1927C91.0618 20.6959 95.9324 19.4475 101.489 19.4475C107.291 19.4475 112.232 20.8014 116.311 23.5093C120.391 26.1819 123.433 29.9975 125.437 34.956C127.477 39.9145 128.286 45.8049 127.864 52.6272H116.839V48.6182C116.769 42.0069 115.503 37.1187 113.041 33.9537C110.614 30.7887 106.904 29.2062 101.911 29.2062C96.3896 29.2062 92.2399 30.947 89.4617 34.4285C86.6836 37.91 85.2945 42.9388 85.2945 49.515C85.2945 55.7747 86.6836 60.6277 89.4617 64.074C92.2399 67.4852 96.2489 69.1907 101.489 69.1907C104.935 69.1907 107.907 68.4171 110.403 66.8697C112.935 65.2872 114.905 63.0366 116.311 60.1177L127.125 63.5465C124.91 68.6457 121.551 72.6019 117.05 75.4152C112.549 78.1934 107.537 79.5825 102.016 79.5825ZM81.7075 52.6272V44.029H122.378V52.6272H81.7075ZM168.078 78C164.491 78.7033 160.975 79.0023 157.528 78.8968C154.082 78.7913 151.005 78.1231 148.297 76.8922C145.589 75.6614 143.549 73.7272 142.178 71.0897C140.947 68.7336 140.279 66.3422 140.173 63.9157C140.103 61.4541 140.068 58.6759 140.068 55.5812V5.20499H151.145V55.0537C151.145 57.3396 151.163 59.3265 151.198 61.0145C151.269 62.7025 151.638 64.1267 152.306 65.2872C153.572 67.4676 155.576 68.716 158.319 69.0325C161.098 69.3138 164.351 69.1907 168.078 68.6632V78ZM129.149 29.892V21.03H168.078V29.892H129.149ZM193.825 11.6932V0.984998H204.85V11.6932H193.825ZM193.825 78V21.03H204.85V78H193.825ZM256.455 78V49.9897C256.455 47.7742 256.262 45.506 255.875 43.185C255.523 40.8288 254.82 38.6485 253.765 36.644C252.745 34.6395 251.286 33.0218 249.387 31.791C247.523 30.5602 245.079 29.9447 242.054 29.9447C240.085 29.9447 238.221 30.2788 236.463 30.947C234.704 31.58 233.157 32.6174 231.821 34.0592C230.52 35.5011 229.482 37.4001 228.709 39.7562C227.97 42.1124 227.601 44.9785 227.601 48.3545L220.743 45.7697C220.743 40.6002 221.71 36.0462 223.645 32.1075C225.579 28.1337 228.357 25.039 231.979 22.8235C235.601 20.608 239.979 19.5002 245.114 19.5002C249.052 19.5002 252.358 20.1332 255.031 21.3992C257.703 22.6652 259.866 24.3357 261.519 26.4105C263.207 28.4502 264.491 30.6832 265.37 33.1097C266.249 35.5362 266.847 37.91 267.163 40.231C267.48 42.552 267.638 44.5917 267.638 46.35V78H256.455ZM216.418 78V21.03H226.282V37.488H227.601V78H216.418ZM312.996 78V12.4317H287.728V2.04H349.288V12.4317H324.02V78H312.996ZM369.801 79.5825C364.104 79.5825 359.163 78.2989 354.978 75.7317C350.793 73.1646 347.558 69.6303 345.272 65.129C343.021 60.5925 341.896 55.3702 341.896 49.4622C341.896 43.5191 343.057 38.2968 345.378 33.7955C347.699 29.259 350.951 25.7423 355.136 23.2455C359.321 20.7135 364.209 19.4475 369.801 19.4475C375.498 19.4475 380.439 20.7311 384.624 23.2982C388.808 25.8654 392.044 29.3997 394.33 33.901C396.615 38.4023 397.758 43.5894 397.758 49.4622C397.758 55.4054 396.598 60.6452 394.277 65.1817C391.991 69.6831 388.756 73.2173 384.571 75.7845C380.386 78.3165 375.463 79.5825 369.801 79.5825ZM369.801 69.1907C375.252 69.1907 379.313 67.3621 381.986 63.7047C384.694 60.0122 386.048 55.2647 386.048 49.4622C386.048 43.5191 384.676 38.7716 381.933 35.2197C379.225 31.6327 375.181 29.8392 369.801 29.8392C366.108 29.8392 363.066 30.6832 360.675 32.3712C358.284 34.0241 356.508 36.3275 355.347 39.2815C354.187 42.2003 353.607 45.5939 353.607 49.4622C353.607 55.4406 354.978 60.2232 357.721 63.8102C360.464 67.3972 364.491 69.1907 369.801 69.1907ZM426.599 79.5298C422.661 79.5298 419.355 78.8968 416.682 77.6307C414.01 76.3647 411.829 74.7119 410.141 72.6722C408.489 70.5974 407.223 68.3467 406.343 65.9202C405.464 63.4937 404.866 61.12 404.55 58.799C404.233 56.478 404.075 54.4383 404.075 52.68V21.03H415.258V49.0402C415.258 51.2557 415.434 53.5416 415.786 55.8977C416.172 58.2187 416.876 60.3815 417.896 62.386C418.951 64.3905 420.41 66.0082 422.274 67.239C424.173 68.4698 426.635 69.0852 429.659 69.0852C431.628 69.0852 433.492 68.7687 435.25 68.1357C437.009 67.4676 438.538 66.4126 439.84 64.9707C441.176 63.5289 442.213 61.6299 442.952 59.2737C443.726 56.9176 444.112 54.0515 444.112 50.6755L450.97 53.2602C450.97 58.4297 450.003 63.0014 448.069 66.9752C446.134 70.9139 443.356 73.991 439.734 76.2065C436.112 78.422 431.734 79.5298 426.599 79.5298ZM445.431 78V61.542H444.112V21.03H455.243V78H445.431ZM490.188 79.5825C484.35 79.5825 479.392 78.2813 475.312 75.679C471.233 73.0767 468.103 69.5072 465.923 64.9707C463.778 60.4342 462.687 55.2823 462.652 49.515C462.687 43.6422 463.813 38.4551 466.028 33.9537C468.244 29.4172 471.409 25.8654 475.523 23.2982C479.638 20.7311 484.579 19.4475 490.346 19.4475C496.571 19.4475 501.881 20.9948 506.277 24.0895C510.708 27.1842 513.626 31.4217 515.033 36.8022L504.061 39.9672C502.971 36.7671 501.177 34.2878 498.681 32.5295C496.219 30.736 493.388 29.8392 490.188 29.8392C486.566 29.8392 483.594 30.7008 481.273 32.424C478.952 34.112 477.229 36.433 476.104 39.387C474.978 42.341 474.398 45.717 474.363 49.515C474.398 55.3878 475.734 60.1353 478.372 63.7575C481.044 67.3797 484.983 69.1907 490.188 69.1907C493.74 69.1907 496.606 68.3819 498.786 66.7642C501.002 65.1114 502.69 62.7552 503.85 59.6957L515.033 62.3332C513.169 67.8896 510.092 72.1623 505.802 75.1515C501.511 78.1055 496.307 79.5825 490.188 79.5825ZM561.544 78V49.9897C561.544 47.7742 561.35 45.506 560.964 43.185C560.612 40.8288 559.909 38.6485 558.854 36.644C557.834 34.6395 556.374 33.0218 554.475 31.791C552.611 30.5602 550.167 29.9447 547.143 29.9447C545.174 29.9447 543.31 30.2788 541.552 30.947C539.793 31.58 538.246 32.6174 536.91 34.0592C535.608 35.5011 534.571 37.4001 533.797 39.7562C533.059 42.1124 532.69 44.9785 532.69 48.3545L525.832 45.7697C525.832 40.6002 526.799 36.0462 528.733 32.1075C530.667 28.1337 533.446 25.039 537.068 22.8235C540.69 20.608 545.068 19.5002 550.203 19.5002C554.141 19.5002 557.447 20.1332 560.12 21.3992C562.792 22.6652 564.955 24.3357 566.608 26.4105C568.296 28.4502 569.579 30.6832 570.459 33.1097C571.338 35.5362 571.936 37.91 572.252 40.231C572.569 42.552 572.727 44.5917 572.727 46.35V78H561.544ZM521.507 78V2.04H531.371V43.0267H532.69V78H521.507Z" fill="url(#paint0_linear_348_1802)"/>
<defs>
<linearGradient id="paint0_linear_348_1802" x1="-2.65627" y1="40" x2="282.964" y2="502.139" gradientUnits="userSpaceOnUse">
<stop stop-color="#E31E24"/>
<stop offset="1" stop-color="#262065"/>
</linearGradient>
</defs>
</svg>
