<svg width="531" height="80" viewBox="0 0 531 80" fill="none" xmlns="http://www.w3.org/2000/svg">
<path d="M36.4315 79.5825C28.8355 79.5825 22.3648 77.9297 17.0195 74.624C11.6742 71.2832 7.57725 66.6412 4.72875 60.698C1.91542 54.7548 0.50875 47.8622 0.50875 40.02C0.50875 32.1778 1.91542 25.2852 4.72875 19.342C7.57725 13.3988 11.6742 8.77441 17.0195 5.46874C22.3648 2.12791 28.8355 0.457498 36.4315 0.457498C45.188 0.457498 52.4323 2.673 58.1645 7.10399C63.9318 11.535 67.9408 17.4957 70.1915 24.9863L59.0085 27.993C57.5315 22.6828 54.894 18.5156 51.096 15.4912C47.3332 12.4669 42.445 10.9547 36.4315 10.9547C31.051 10.9547 26.5673 12.168 22.9803 14.5945C19.3933 17.021 16.6854 20.4146 14.8568 24.7752C13.0633 29.1359 12.1665 34.2175 12.1665 40.02C12.1313 45.8225 13.0105 50.9041 14.804 55.2647C16.6327 59.6254 19.3405 63.019 22.9275 65.4455C26.5497 67.872 31.051 69.0852 36.4315 69.0852C42.445 69.0852 47.3332 67.5731 51.096 64.5487C54.894 61.4892 57.5315 57.322 59.0085 52.047L70.1915 55.0537C67.9408 62.5442 63.9318 68.505 58.1645 72.936C52.4323 77.367 45.188 79.5825 36.4315 79.5825ZM93.662 79.5825C89.442 79.5825 85.9077 78.8088 83.0592 77.2615C80.2107 75.679 78.048 73.6042 76.571 71.037C75.1291 68.4347 74.4082 65.5862 74.4082 62.4915C74.4082 59.6078 74.9181 57.0758 75.938 54.8955C76.9578 52.7152 78.47 50.8689 80.4745 49.3567C82.479 47.8094 84.9406 46.561 87.8595 45.6115C90.3915 44.873 93.2575 44.2224 96.4577 43.6597C99.6579 43.0971 103.016 42.5696 106.533 42.0772C110.085 41.5849 113.601 41.0926 117.083 40.6002L113.074 42.8157C113.144 38.3496 112.195 35.0439 110.225 32.8987C108.291 30.7184 104.95 29.6282 100.203 29.6282C97.2138 29.6282 94.4708 30.3316 91.974 31.7382C89.4771 33.1097 87.7364 35.3956 86.7517 38.5957L76.4655 35.4307C77.8721 30.5426 80.5448 26.6567 84.4835 23.773C88.4573 20.8893 93.7323 19.4475 100.308 19.4475C105.408 19.4475 109.839 20.3267 113.601 22.085C117.399 23.8082 120.178 26.5512 121.936 30.314C122.85 32.1778 123.413 34.1472 123.624 36.222C123.835 38.2968 123.94 40.5299 123.94 42.9212V78H114.182V64.9707L116.081 66.6587C113.725 71.0194 110.718 74.2723 107.06 76.4175C103.438 78.5275 98.9721 79.5825 93.662 79.5825ZM95.6137 70.5622C98.7435 70.5622 101.434 70.0172 103.684 68.927C105.935 67.8017 107.746 66.3774 109.118 64.6542C110.489 62.9311 111.386 61.1376 111.808 59.2737C112.406 57.5857 112.74 55.6867 112.81 53.5767C112.916 51.4667 112.968 49.7787 112.968 48.5127L116.555 49.8315C113.074 50.359 109.909 50.8337 107.06 51.2557C104.212 51.6777 101.627 52.0997 99.3062 52.5217C97.0204 52.9086 94.9807 53.3833 93.1872 53.946C91.675 54.4735 90.3211 55.1065 89.1255 55.845C87.965 56.5835 87.033 57.4802 86.3297 58.5352C85.6615 59.5902 85.3275 60.8738 85.3275 62.386C85.3275 63.863 85.6967 65.2345 86.4352 66.5005C87.1737 67.7313 88.299 68.716 89.8112 69.4545C91.3234 70.193 93.2575 70.5622 95.6137 70.5622ZM134.473 78V0.457498H145.498V78H134.473ZM181.489 79.5825C175.651 79.5825 170.693 78.2813 166.614 75.679C162.534 73.0767 159.404 69.5072 157.224 64.9707C155.079 60.4342 153.989 55.2823 153.954 49.515C153.989 43.6422 155.114 38.4551 157.33 33.9537C159.545 29.4172 162.71 25.8654 166.825 23.2982C170.939 20.7311 175.88 19.4475 181.647 19.4475C187.872 19.4475 193.182 20.9948 197.578 24.0895C202.009 27.1842 204.928 31.4217 206.334 36.8022L195.362 39.9672C194.272 36.7671 192.479 34.2878 189.982 32.5295C187.52 30.736 184.689 29.8392 181.489 29.8392C177.867 29.8392 174.895 30.7008 172.574 32.424C170.253 34.112 168.53 36.433 167.405 39.387C166.279 42.341 165.699 45.717 165.664 49.515C165.699 55.3878 167.036 60.1353 169.673 63.7575C172.346 67.3797 176.284 69.1907 181.489 69.1907C185.041 69.1907 187.907 68.3819 190.087 66.7642C192.303 65.1114 193.991 62.7552 195.151 59.6957L206.334 62.3332C204.47 67.8896 201.393 72.1623 197.103 75.1515C192.813 78.1055 187.608 79.5825 181.489 79.5825ZM234.33 79.5298C230.391 79.5298 227.085 78.8968 224.413 77.6307C221.74 76.3647 219.56 74.7119 217.872 72.6722C216.219 70.5974 214.953 68.3467 214.074 65.9202C213.195 63.4937 212.597 61.12 212.28 58.799C211.964 56.478 211.805 54.4383 211.805 52.68V21.03H222.988V49.0402C222.988 51.2557 223.164 53.5416 223.516 55.8977C223.903 58.2187 224.606 60.3815 225.626 62.386C226.681 64.3905 228.14 66.0082 230.004 67.239C231.903 68.4698 234.365 69.0852 237.389 69.0852C239.359 69.0852 241.222 68.7687 242.981 68.1357C244.739 67.4676 246.269 66.4126 247.57 64.9707C248.906 63.5289 249.944 61.6299 250.682 59.2737C251.456 56.9176 251.843 54.0515 251.843 50.6755L258.7 53.2602C258.7 58.4297 257.733 63.0014 255.799 66.9752C253.865 70.9139 251.087 73.991 247.464 76.2065C243.842 78.422 239.464 79.5298 234.33 79.5298ZM253.161 78V61.542H251.843V21.03H262.973V78H253.161ZM274.603 78V0.457498H285.627V78H274.603ZM313.337 79.5825C309.117 79.5825 305.583 78.8088 302.734 77.2615C299.886 75.679 297.723 73.6042 296.246 71.037C294.804 68.4347 294.083 65.5862 294.083 62.4915C294.083 59.6078 294.593 57.0758 295.613 54.8955C296.633 52.7152 298.145 50.8689 300.149 49.3567C302.154 47.8094 304.616 46.561 307.534 45.6115C310.066 44.873 312.932 44.2224 316.133 43.6597C319.333 43.0971 322.691 42.5696 326.208 42.0772C329.76 41.5849 333.276 41.0926 336.758 40.6002L332.749 42.8157C332.819 38.3496 331.87 35.0439 329.9 32.8987C327.966 30.7184 324.625 29.6282 319.878 29.6282C316.889 29.6282 314.146 30.3316 311.649 31.7382C309.152 33.1097 307.411 35.3956 306.427 38.5957L296.14 35.4307C297.547 30.5426 300.22 26.6567 304.158 23.773C308.132 20.8893 313.407 19.4475 319.983 19.4475C325.083 19.4475 329.514 20.3267 333.276 22.085C337.074 23.8082 339.853 26.5512 341.611 30.314C342.525 32.1778 343.088 34.1472 343.299 36.222C343.51 38.2968 343.615 40.5299 343.615 42.9212V78H333.857V64.9707L335.756 66.6587C333.399 71.0194 330.393 74.2723 326.735 76.4175C323.113 78.5275 318.647 79.5825 313.337 79.5825ZM315.289 70.5622C318.418 70.5622 321.109 70.0172 323.359 68.927C325.61 67.8017 327.421 66.3774 328.793 64.6542C330.164 62.9311 331.061 61.1376 331.483 59.2737C332.081 57.5857 332.415 55.6867 332.485 53.5767C332.591 51.4667 332.643 49.7787 332.643 48.5127L336.23 49.8315C332.749 50.359 329.584 50.8337 326.735 51.2557C323.887 51.6777 321.302 52.0997 318.981 52.5217C316.695 52.9086 314.656 53.3833 312.862 53.946C311.35 54.4735 309.996 55.1065 308.8 55.845C307.64 56.5835 306.708 57.4802 306.005 58.5352C305.336 59.5902 305.002 60.8738 305.002 62.386C305.002 63.863 305.372 65.2345 306.11 66.5005C306.849 67.7313 307.974 68.716 309.486 69.4545C310.998 70.193 312.932 70.5622 315.289 70.5622ZM385.693 78C382.106 78.7033 378.589 79.0023 375.143 78.8968C371.696 78.7913 368.619 78.1231 365.911 76.8922C363.203 75.6614 361.164 73.7272 359.792 71.0897C358.561 68.7336 357.893 66.3422 357.788 63.9157C357.717 61.4541 357.682 58.6759 357.682 55.5812V5.20499H368.76V55.0537C368.76 57.3396 368.777 59.3265 368.813 61.0145C368.883 62.7025 369.252 64.1267 369.92 65.2872C371.186 67.4676 373.191 68.716 375.934 69.0325C378.712 69.3138 381.965 69.1907 385.693 68.6632V78ZM346.763 29.892V21.03H385.693V29.892H346.763ZM415.648 79.5825C409.951 79.5825 405.01 78.2989 400.825 75.7317C396.64 73.1646 393.405 69.6303 391.119 65.129C388.869 60.5925 387.743 55.3702 387.743 49.4622C387.743 43.5191 388.904 38.2968 391.225 33.7955C393.546 29.259 396.799 25.7423 400.983 23.2455C405.168 20.7135 410.056 19.4475 415.648 19.4475C421.345 19.4475 426.286 20.7311 430.471 23.2982C434.656 25.8654 437.891 29.3997 440.177 33.901C442.463 38.4023 443.605 43.5894 443.605 49.4622C443.605 55.4054 442.445 60.6452 440.124 65.1817C437.838 69.6831 434.603 73.2173 430.418 75.7845C426.233 78.3165 421.31 79.5825 415.648 79.5825ZM415.648 69.1907C421.099 69.1907 425.161 67.3621 427.833 63.7047C430.541 60.0122 431.895 55.2647 431.895 49.4622C431.895 43.5191 430.523 38.7716 427.78 35.2197C425.073 31.6327 421.028 29.8392 415.648 29.8392C411.955 29.8392 408.914 30.6832 406.522 32.3712C404.131 34.0241 402.355 36.3275 401.194 39.2815C400.034 42.2003 399.454 45.5939 399.454 49.4622C399.454 55.4406 400.825 60.2232 403.568 63.8102C406.311 67.3972 410.338 69.1907 415.648 69.1907ZM450.977 78V21.03H460.789V34.8505L459.417 33.057C460.121 31.2283 461.035 29.5579 462.16 28.0457C463.286 26.4984 464.587 25.2324 466.064 24.2477C467.506 23.1927 469.106 22.3839 470.864 21.8212C472.658 21.2234 474.486 20.8717 476.35 20.7662C478.214 20.6256 480.007 20.7135 481.731 21.03V31.369C479.867 30.8767 477.792 30.736 475.506 30.947C473.255 31.158 471.181 31.8789 469.282 33.1097C467.488 34.2702 466.064 35.6769 465.009 37.3297C463.989 38.9826 463.25 40.8288 462.793 42.8685C462.336 44.873 462.108 47.0006 462.108 49.2512V78H450.977ZM507.281 79.5298C500.353 79.5298 494.709 78 490.349 74.9405C485.988 71.881 483.315 67.5731 482.331 62.0167L493.619 60.276C494.322 63.23 495.94 65.5686 498.472 67.2917C501.039 68.9797 504.222 69.8237 508.02 69.8237C511.466 69.8237 514.156 69.1204 516.091 67.7137C518.06 66.3071 519.045 64.3729 519.045 61.9112C519.045 60.4694 518.693 59.3089 517.99 58.4297C517.321 57.5154 515.897 56.6538 513.717 55.845C511.536 55.0362 508.213 54.0339 503.747 52.8382C498.859 51.5722 494.973 50.2183 492.089 48.7765C489.241 47.2995 487.201 45.5939 485.97 43.6597C484.775 41.6904 484.177 39.3167 484.177 36.5385C484.177 33.0922 485.091 30.0854 486.92 27.5182C488.748 24.9511 491.316 22.9642 494.621 21.5575C497.962 20.1508 501.866 19.4475 506.332 19.4475C510.692 19.4475 514.578 20.1332 517.99 21.5047C521.401 22.8762 524.161 24.828 526.271 27.36C528.381 29.8568 529.647 32.7932 530.069 36.1692L518.781 38.2265C518.394 35.4835 517.11 33.3207 514.93 31.7382C512.75 30.1557 509.919 29.2942 506.437 29.1535C503.096 29.0128 500.389 29.5755 498.314 30.8415C496.239 32.0723 495.202 33.7779 495.202 35.9582C495.202 37.2242 495.588 38.2968 496.362 39.176C497.171 40.0552 498.718 40.8992 501.004 41.708C503.29 42.5168 506.666 43.4839 511.132 44.6092C515.915 45.8401 519.713 47.2116 522.526 48.7237C525.339 50.2007 527.344 51.9767 528.54 54.0515C529.77 56.0912 530.386 58.5704 530.386 61.4892C530.386 67.1159 528.329 71.5293 524.214 74.7295C520.135 77.9297 514.49 79.5298 507.281 79.5298Z" fill="url(#paint0_linear_348_1277)"/>
<defs>
<linearGradient id="paint0_linear_348_1277" x1="-2.65627" y1="40" x2="292.436" y2="481.368" gradientUnits="userSpaceOnUse">
<stop stop-color="#E31E24"/>
<stop offset="1" stop-color="#262065"/>
</linearGradient>
</defs>
</svg>
